<svg width="16" height="16" viewBox="0 0 16 16" fill="none" xmlns="http://www.w3.org/2000/svg">
<path d="M3.01545 9C3.00864 9.13911 3 9.27867 3 9.41734C3 13.047 5.24318 16 8 16C10.7568 16 13 13.047 13 9.41734C13 9.27867 12.9914 9.13911 12.9845 9C11.5947 10.1407 9.82398 10.7566 8 10.7339C6.17602 10.7566 4.40527 10.1407 3.01545 9Z" fill="white"/>
<path d="M3 7C4.27787 8.27338 6.09441 9 8 9C9.90559 9 11.7221 8.27338 13 7H3Z" fill="white"/>
<path fill-rule="evenodd" clip-rule="evenodd" d="M14.2572 5.20435C14.5311 4.72007 14.7692 4.21464 14.9693 3.69231C15.0407 3.50367 14.9847 3.28897 14.8311 3.16292C12.8487 1.5298 10.4979 0.441646 7.99782 0C5.49877 0.443399 3.14928 1.53298 1.16858 3.16708C1.01512 3.29325 0.959272 3.50792 1.03085 3.69646C1.2309 4.21738 1.46884 4.72142 1.74245 5.20435H14.2572ZM8 4C8.55228 4 9 3.55228 9 3C9 2.44772 8.55228 2 8 2C7.44772 2 7 2.44772 7 3C7 3.55228 7.44772 4 8 4Z" fill="white"/>
</svg>
